<svg version="1.0" xmlns="http://www.w3.org/2000/svg"
 width="889.000000pt" height="1280.000000pt" viewBox="0 0 889.000000 1280.000000"
 preserveAspectRatio="xMidYMid meet">
<g transform="translate(0.000000,1280.000000) scale(0.100000,-0.100000)"
fill="#000000" stroke="none">
<path d="M0 6400 l0 -6400 4445 0 4445 0 0 6400 0 6400 -4445 0 -4445 0 0
-6400z m8868 6378 c18 -18 18 -12738 0 -12756 -17 -17 -8829 -17 -8846 0 -18
18 -18 12738 0 12756 17 17 8829 17 8846 0z"/>
<path d="M4422 11886 c-158 -169 -281 -422 -344 -708 -21 -96 -23 -125 -22
-433 1 -299 17 -849 59 -1995 34 -923 35 -976 25 -1232 -17 -417 -54 -696
-135 -1013 -84 -332 -184 -568 -297 -703 -376 -448 -613 -968 -698 -1531 -24
-156 -43 -395 -38 -481 l3 -65 280 0 280 0 7 140 c8 183 57 512 103 695 107
425 314 804 599 1098 121 125 226 212 254 212 13 0 64 -43 139 -118 373 -371
631 -829 738 -1312 30 -134 74 -451 83 -600 l7 -115 278 -3 c244 -2 278 0 284
13 9 26 -16 369 -37 510 -88 569 -327 1095 -701 1540 -60 71 -74 98 -132 240
-255 628 -347 1289 -307 2200 5 121 19 483 30 805 11 322 27 801 36 1065 21
597 23 894 6 1000 -31 184 -81 345 -156 493 -71 141 -236 362 -271 362 -7 0
-40 -29 -73 -64z"/>
<path d="M1200 6930 l0 -3930 903 0 c496 0 907 -4 914 -8 6 -4 23 -52 37 -107
90 -355 274 -722 516 -1025 164 -206 427 -455 640 -606 117 -82 267 -174 285
-174 41 0 303 167 465 296 116 93 380 358 472 474 253 319 437 694 524 1070 8
35 20 68 27 72 7 4 418 8 915 8 l902 0 0 3930 c0 3532 -2 3930 -15 3930 -26 0
-94 -39 -225 -127 -177 -122 -295 -218 -454 -373 -224 -219 -384 -416 -538
-664 -310 -498 -501 -1079 -563 -1716 -39 -407 -59 -589 -100 -930 -50 -411
-115 -1008 -115 -1056 l0 -31 103 -6 c125 -6 201 -31 302 -98 187 -126 271
-278 263 -479 -3 -88 -7 -104 -41 -174 -49 -98 -116 -166 -248 -252 -57 -37
-106 -69 -108 -71 -2 -1 15 -67 38 -145 22 -79 52 -194 65 -256 13 -63 26
-115 29 -118 2 -2 44 12 93 32 388 156 624 440 700 842 22 120 15 337 -16 442
-29 101 -97 243 -160 334 -67 97 -203 227 -312 299 -49 32 -95 69 -105 83 -22
34 -20 67 22 409 54 437 82 684 110 965 31 315 55 470 106 673 86 342 219 663
391 945 99 162 207 322 217 322 5 0 12 -7 15 -16 8 -20 8 -6178 0 -6198 -6
-14 -114 -16 -1125 -16 l-1119 0 0 -240 0 -240 173 0 c94 0 178 -4 186 -9 17
-11 11 -46 -29 -187 -91 -314 -275 -639 -494 -872 -27 -28 -55 -52 -63 -52
-11 0 -13 138 -11 868 l3 867 34 70 c63 129 191 232 369 295 50 18 62 27 62
44 0 80 -62 442 -78 458 -11 11 -143 -35 -221 -78 -81 -45 -217 -139 -336
-233 -50 -39 -97 -71 -107 -71 -9 0 -51 28 -95 63 -112 91 -256 192 -332 235
-57 32 -208 92 -230 92 -11 0 -37 -125 -61 -290 -30 -203 -32 -193 43 -220
177 -63 305 -166 368 -295 l34 -70 3 -859 c1 -574 -1 -863 -8 -870 -12 -12
-79 57 -175 179 -178 227 -315 496 -394 770 -35 122 -38 150 -15 159 9 3 92 6
185 6 l169 0 0 240 0 240 -1122 2 -1123 3 0 3109 c0 2281 3 3110 11 3113 12 4
170 -232 269 -400 135 -232 266 -564 344 -872 52 -207 69 -316 101 -640 27
-276 41 -399 101 -895 50 -409 54 -485 28 -516 -7 -8 -56 -44 -110 -79 -310
-205 -493 -532 -493 -880 1 -399 197 -741 542 -945 84 -50 254 -122 263 -112
4 4 19 66 34 137 16 72 45 185 65 253 l37 123 -21 15 c-11 8 -55 36 -96 63
-202 130 -283 259 -283 451 1 157 48 256 179 379 50 47 100 81 156 109 97 47
160 62 263 62 67 0 75 2 75 19 0 39 -73 702 -115 1051 -56 455 -59 483 -90
820 -40 424 -99 729 -201 1041 -206 631 -576 1191 -1064 1611 -185 159 -475
358 -522 358 -17 0 -18 -120 -18 -3930z"/>
</g>
</svg>
